<svg width="18" height="18" viewBox="0 0 18 18" fill="none" xmlns="http://www.w3.org/2000/svg">
<g clip-path="url(#clip0_468_1178)">
<path d="M8.99805 9.5625C10.2407 9.5625 11.248 8.55514 11.248 7.3125C11.248 6.06986 10.2407 5.0625 8.99805 5.0625C7.75541 5.0625 6.74805 6.06986 6.74805 7.3125C6.74805 8.55514 7.75541 9.5625 8.99805 9.5625Z" stroke="#808080" stroke-linecap="round" stroke-linejoin="round"/>
<path d="M14.6211 7.3125C14.6211 12.375 8.99609 16.3125 8.99609 16.3125C8.99609 16.3125 3.37109 12.375 3.37109 7.3125C3.37109 5.82066 3.96373 4.38992 5.01862 3.33502C6.07351 2.28013 7.50425 1.6875 8.99609 1.6875C10.4879 1.6875 11.9187 2.28013 12.9736 3.33502C14.0285 4.38992 14.6211 5.82066 14.6211 7.3125Z" stroke="#808080" stroke-linecap="round" stroke-linejoin="round"/>
</g>
<defs>
<clipPath id="clip0_468_1178">
<rect width="18" height="18" fill="white"/>
</clipPath>
</defs>
</svg>
