<svg width="18" height="18" viewBox="0 0 18 18" fill="none" xmlns="http://www.w3.org/2000/svg">
<g clip-path="url(#clip0_468_1179)">
<path d="M11.5587 10.1257C11.6366 10.0738 11.7262 10.0422 11.8194 10.0338C11.9125 10.0253 12.0064 10.0402 12.0923 10.0772L15.4083 11.5629C15.52 11.6106 15.6133 11.6933 15.6741 11.7985C15.735 11.9037 15.7601 12.0258 15.7458 12.1464C15.6365 12.9628 15.2345 13.7117 14.6145 14.2539C13.9945 14.796 13.1986 15.0946 12.375 15.0939C9.83887 15.0939 7.40661 14.0865 5.61329 12.2932C3.81998 10.4998 2.8125 8.06758 2.8125 5.53145C2.81187 4.70781 3.1104 3.91197 3.65257 3.29195C4.19474 2.67192 4.94364 2.26991 5.76 2.16067C5.88068 2.14633 6.00276 2.17146 6.10796 2.2323C6.21316 2.29314 6.29583 2.38642 6.34359 2.49817L7.8293 5.81692C7.8658 5.90216 7.88067 5.9951 7.87257 6.08747C7.86447 6.17984 7.83367 6.26878 7.78289 6.34637L6.28031 8.13301C6.22701 8.21344 6.1955 8.30632 6.18884 8.40257C6.18219 8.49882 6.20062 8.59516 6.24234 8.68215C6.82383 9.87254 8.0543 11.0882 9.2482 11.6641C9.33566 11.7056 9.43243 11.7237 9.52898 11.7164C9.62553 11.7091 9.71851 11.6768 9.79875 11.6226L11.5587 10.1257Z" stroke="#808080" stroke-linecap="round" stroke-linejoin="round"/>
</g>
<defs>
<clipPath id="clip0_468_1179">
<rect width="18" height="18" fill="white"/>
</clipPath>
</defs>
</svg>
