<svg width="20" height="20" viewBox="0 0 20 20" fill="none" xmlns="http://www.w3.org/2000/svg">
<g clip-path="url(#clip0_468_1196)">
<path d="M4.37695 3.75C7.5264 3.75 10.5469 5.00111 12.7738 7.22811C15.0008 9.4551 16.252 12.4756 16.252 15.625" stroke="#808080" stroke-linecap="round" stroke-linejoin="round"/>
<path d="M4.37695 9.37524C5.19771 9.37524 6.01044 9.53691 6.76873 9.851C7.52701 10.1651 8.21601 10.6255 8.79637 11.2058C9.37674 11.7862 9.83711 12.4752 10.1512 13.2335C10.4653 13.9918 10.627 14.8045 10.627 15.6252" stroke="#808080" stroke-linecap="round" stroke-linejoin="round"/>
<path d="M4.6875 15.9377C5.03268 15.9377 5.3125 15.6579 5.3125 15.3127C5.3125 14.9676 5.03268 14.6877 4.6875 14.6877C4.34232 14.6877 4.0625 14.9676 4.0625 15.3127C4.0625 15.6579 4.34232 15.9377 4.6875 15.9377Z" fill="#808080"/>
</g>
<defs>
<clipPath id="clip0_468_1196">
<rect width="20" height="20" fill="white"/>
</clipPath>
</defs>
</svg>
