<svg width="20" height="20" viewBox="0 0 20 20" fill="none" xmlns="http://www.w3.org/2000/svg">
<g clip-path="url(#clip0_468_1195)">
<path d="M6.87439 10.5366L13.926 16.7186C14.0072 16.7903 14.1056 16.8396 14.2117 16.8618C14.3177 16.8839 14.4277 16.8781 14.5308 16.845C14.6339 16.8118 14.7266 16.7524 14.7999 16.6726C14.8731 16.5928 14.9244 16.4953 14.9486 16.3897L18.1244 2.59521C18.1275 2.58138 18.1268 2.56696 18.1223 2.55351C18.1178 2.54006 18.1098 2.52807 18.099 2.51884C18.0883 2.50961 18.0752 2.50348 18.0612 2.5011C18.0473 2.49873 18.0329 2.5002 18.0197 2.50537L2.18689 8.70146C2.0886 8.73929 2.00523 8.80798 1.9493 8.89722C1.89337 8.98646 1.8679 9.09143 1.8767 9.19638C1.88551 9.30133 1.92812 9.4006 1.99813 9.47927C2.06815 9.55794 2.1618 9.61178 2.26501 9.63271L6.87439 10.5366Z" stroke="#808080" stroke-linecap="round" stroke-linejoin="round"/>
<path d="M6.875 10.5363L18.0789 2.50659" stroke="#808080" stroke-linecap="round" stroke-linejoin="round"/>
<path d="M10.3414 13.576L7.95 16.0572C7.86359 16.1469 7.75237 16.2087 7.63061 16.2347C7.50884 16.2607 7.38208 16.2498 7.26657 16.2033C7.15107 16.1568 7.05209 16.0768 6.98232 15.9737C6.91255 15.8706 6.87518 15.7489 6.875 15.6244V10.5361" stroke="#808080" stroke-linecap="round" stroke-linejoin="round"/>
</g>
<defs>
<clipPath id="clip0_468_1195">
<rect width="20" height="20" fill="white"/>
</clipPath>
</defs>
</svg>
