<svg width="62" height="62" viewBox="0 0 62 62" fill="none" xmlns="http://www.w3.org/2000/svg">
<path d="M60.577 31.4233C60.8106 15.0883 47.7579 1.65689 31.423 1.42327C15.0881 1.18966 1.65661 14.2424 1.42299 30.5773C1.18938 46.9122 14.2421 60.3437 30.577 60.5773C46.9119 60.8109 60.3434 47.7582 60.577 31.4233Z" fill="#DA281B"/>
<path d="M60.577 31.4233C60.8106 15.0883 47.7579 1.65689 31.423 1.42327C15.0881 1.18966 1.65661 14.2424 1.42299 30.5773C1.18938 46.9122 14.2421 60.3437 30.577 60.5773C46.9119 60.8109 60.3434 47.7582 60.577 31.4233Z" stroke="white" stroke-width="2.1997" stroke-miterlimit="22.9256"/>
<path fill-rule="evenodd" clip-rule="evenodd" d="M30.9981 8.61377C43.3292 8.61377 53.383 18.6676 53.383 30.9986C53.383 43.3297 43.3292 53.3834 30.9981 53.3834C18.6671 53.3834 8.61328 43.3297 8.61328 30.9986C8.61328 18.6676 18.6671 8.61377 30.9981 8.61377Z" fill="white"/>
<path fill-rule="evenodd" clip-rule="evenodd" d="M31.4297 39.5017L44.3906 48.9559L39.3879 33.6088L52.1793 23.9305H36.2143L31.4297 8.96484V39.5017Z" fill="#DA281B"/>
<path fill-rule="evenodd" clip-rule="evenodd" d="M30.6789 39.5017L17.7786 49.071L22.8902 33.6088L9.82031 23.9305H25.7853L30.6789 8.96484V39.5017Z" fill="#204E93"/>
</svg>
